# xmcd
#
# Track frame offsets: 
#        187
#        13195
#        26237
#        39050
#        51517
#        62940
#        73865
#        86030
#        98312
#        112145
#        125257
#        136190
#        148600
#        160672
#        170845
#        181050
#        193982
#        207825
#        220577
#        230142
#
# Disc length: 3326 seconds
#
# Revision: 2
# Processed by: cddbd v1.5.2PL0 Copyright (c) Steve Scherf et al.
# Submitted via: ExactAudioCopy v0.99pb4
#
DISCID=260cfc14
DTITLE=Various Artist - For Old Times' Sake - Golden Memories
DYEAR=1994
DGENRE=Country
TTITLE0=The Statler Brothers/Do You Remember These
TTITLE1=Jim Reeves/Four Walls
TTITLE2=Johnny Cash/Folsom Prison Blues
TTITLE3=Freddy Fender/Wasted Days And Wasted Nights
TTITLE4=Hank Locklin/Send Me The Pillow You Dream On
TTITLE5=Dolly Parton/Just Someone I Used To Know (With Porter Wagoner)
TTITLE6=Eddy Arnold/I Want To With You
TTITLE7=George Jones/A Girl I Used To Know
TTITLE8=Red Foley/Birmingham Bounce
TTITLE9=Bobby Helms/Fraulein
TTITLE10=Faron Young/Hello Walls
TTITLE11=Bobby Bare/500 Miles Away From Home
TTITLE12=Don Gibson/I Can't Stop Loving You
TTITLE13=Sonny James/You're The Only World I Know
TTITLE14=Charlie Rich/I Don't See Me In Your Eyes Anymore
TTITLE15=The Browns/The Three Bells
TTITLE16=Red Foley/Goodnight, Irene (With Ernest Tubb)
TTITLE17=Bill Anderson/Still
TTITLE18=Slim Whitman/I Remember You
TTITLE19=Gentle On My Mind
EXTD=
EXTT0=
EXTT1=
EXTT2=
EXTT3=
EXTT4=
EXTT5=
EXTT6=
EXTT7=
EXTT8=
EXTT9=
EXTT10=
EXTT11=
EXTT12=
EXTT13=
EXTT14=
EXTT15=
EXTT16=
EXTT17=
EXTT18=
EXTT19=
PLAYORDER=
